<svg width="151" height="26" fill="none" xmlns="http://www.w3.org/2000/svg">
  <path d="M1.66631 20.138c.44238-.872.87002-1.8621 1.28291-3.0148 1.40088.8128 3.0082 1.4335 4.85147 1.8916 1.84326.4581 3.55381.6798 5.14641.6798 1.622 0 2.7722-.1478 3.4358-.4286.6636-.2807 1.0027-.5911 1.0027-.931 0-1.197-1.8285-1.8029-5.4708-1.8029-3.99615 0-6.90113-.4138-8.7149-1.2562-1.79902-.8276-2.698531-2.1724-2.698531-4.0493 0-2.66007 1.105961-4.61081 3.288381-5.86696 2.21191-1.25616 5.05791-1.87685 8.56745-1.87685 2.035 0 4.1289.26601 6.2819.78325 2.1529.51724 4.0846 1.2266 5.8099 2.14286-.5751 1.30049-1.1649 2.88177-1.799 4.7438-.118.3991-.2212.6946-.2949.8867-1.0028-.8128-2.5069-1.4778-4.5271-2.0246-2.0202-.54679-3.8045-.8128-5.3528-.8128-1.858 0-3.11143.11823-3.76026.36946-.64883.25123-.97324.60594-.97324 1.07884s.44238.8571 1.3419 1.1379c.89951.2808 2.1824.4286 3.8782.4286 4.1584 0 7.1814.4729 9.0689 1.4335 1.8875.9606 2.8165 2.4088 2.8165 4.3744 0 2.7487-1.0028 4.729-2.9935 5.9408-2.0055 1.2119-5.0284 1.8178-9.0983 1.8178-2.1824 0-4.39436-.2365-6.65052-.7242-2.25615-.4876-4.29111-1.1822-6.0901324-2.1133C.663576 21.9409 1.22393 20.9951 1.66631 20.138ZM65.4137 13.7389c.8258-2.9704 2.8755-4.44825 6.1491-4.44825.5751 0 1.1207.04433 1.6516.11823l-.9438 6.60592c-1.4156-.532-2.5658-.798-3.4653-.798-1.1207 0-1.9465.3399-2.4774 1.0049-.5308.665-.7963 1.5665-.7963 2.6896v-.0295l-.0295 1.9507c0 1.3892.0443 2.9557.118 4.6552h-7.0339c.1622-2.8374.236-5.4975.236-8.0246s-.0738-5.202-.236-8.08378c1.2977.05911 2.2857.08867 2.9787.08867.7226 0 1.7106-.02956 2.9788-.08867l.87 4.35958ZM88.8895 14.6551c-1.7991-.1182-3.4506-.2069-4.94-.266l-.0295 3.1183c0 1.064.2212 1.8916.6931 2.4975.4571.6059 1.2829.9015 2.4626.9015.4424 0 .8847-.0444 1.2976-.1182-.0737.7241-.1179 1.463-.1179 2.2167 0 .3547.0147 1.1527.059 2.4236-.8701.1626-1.5926.2513-2.1825.2956-.5898.0443-1.3566.0591-2.3004.0591-2.3004 0-3.9224-.5615-4.8662-1.6699-.9585-1.1084-1.4303-2.6601-1.4303-4.6404l.0294-4.9803c-.929.0443-1.8875.1034-2.8902.1773V9.4384c1.0175 0 1.8875-.32513 2.5953-.97537.7078-.65025 1.1207-1.41872 1.2682-2.33498h8.0071c-1.0027 1.37439-2.1087 2.48276-3.3178 3.29557h5.6772v5.23148h-.0147ZM91.8534 6.71922c-.6046-.60591-.8995-1.40394-.8995-2.39409 0-.96059.2949-1.75862.8995-2.39409.6046-.63547 1.5189-.945811 2.7575-.945811 1.1797 0 2.0792.325121 2.7133.960591.6341.63547.9438 1.4335.9438 2.37931 0 .97537-.3097 1.7734-.9143 2.39409-.6046.60591-1.5188.91626-2.7428.91626-1.2534 0-2.1676-.31035-2.7575-.91626Zm-.6636 18.75368c.1328-3.1625.2065-5.7783.2065-7.8473 0-2.4532-.0737-5.2019-.2359-8.26106h7.0633c-.1622 2.92606-.2359 5.67486-.2359 8.26106 0 2.1577.0737 4.7734.2064 7.8473h-7.0044ZM118.78 17.3892c0 2.8965.059 5.5862.206 8.0837-1.253-.0591-2.241-.0886-2.978-.0886-.694 0-1.682.0295-2.979.0886l-.855-4.33c-.458 1.5665-1.151 2.734-2.124 3.4877-.958.7537-2.079 1.1379-3.347 1.1379-1.18 0-2.197-.266-3.053-.7833-.87-.5172-1.519-1.2266-1.961-2.1133-.442-.8867-.664-1.8768-.664-2.9852v-4.2266c0-2.6157-.044-4.7143-.147-6.28077h6.621c-.118 2.89657-.177 5.74877-.177 8.58617 0 .872.207 1.5518.634 2.069.428.5172.959.7685 1.607.7685.605 0 1.136-.266 1.608-.8128.457-.5468.737-1.2857.84-2.2316v-.6798c.045-1.5369.059-2.6009.059-3.1773 0-1.3596-.044-2.867-.118-4.50739h7.034c-.132 2.45319-.206 5.12809-.206 7.99509ZM144.143 25.4729c.162-2.5714.236-5.2315.236-7.9951 0-.8867-.221-1.5812-.664-2.0837-.442-.5025-1.032-.7537-1.754-.7537-.664 0-1.239.2956-1.726.8867-.486.5911-.722 1.4483-.722 2.5714v-.0295c0 3.4729.044 5.9409.147 7.4039h-6.621c.118-2.8965.177-5.5566.177-7.9951 0-.8719-.206-1.5517-.634-2.0689-.428-.5173-.958-.7685-1.607-.7685-.693 0-1.268.2956-1.725.8719-.458.5764-.738 1.3744-.812 2.3793-.044 1.4926-.059 2.5567-.059 3.1774 0 1.33.045 2.8079.118 4.3891h-7.033c.147-2.8374.236-5.4975.236-8.0246s-.074-5.202-.236-8.08373c1.297.05911 2.285.08867 2.978.08867.723 0 1.711-.02956 2.979-.08867l.885 4.35963c.457-1.5961 1.165-2.7636 2.153-3.5173.973-.75366 2.108-1.1379 3.377-1.1379 1.533 0 2.787.42857 3.745 1.2709.973.8424 1.578 1.9508 1.814 3.2956.457-1.3892 1.209-2.5123 2.271-3.3251 1.061-.82761 2.271-1.2414 3.627-1.2414 1.77 0 3.141.59113 4.144 1.7882 1.003 1.1822 1.504 2.8226 1.504 4.8768v4.8916c0 2.2168.015 3.8276.059 4.8326h-6.857v.0295ZM55.637 13.1625c-.7225-1.2413-1.8432-2.2463-3.3621-2.9852-1.4746-.72413-2.964-.42856-4.8367.665-1.9023 1.1232-3.1262 3.2365-5.6183 3.2365-2.5511 0-3.4063-2.5271-6.1638-3.6798-3.0967-1.28573-4.8073-.57637-6.3704.9606-1.5778 1.5369-2.3741 3.532-2.3741 5.9852 0 2.5123.7963 4.5517 2.3741 6.0887 1.5779 1.5369 4.763 2.1872 7.5943.3842 2.6543-1.6995 2.4036-2.9557 4.9547-2.9557 2.5068 0 2.4626 1.4779 4.7187 2.6454 2.8608 1.4926 6.0459 1.4335 7.6827-.0739 1.6811-1.537 2.5216-3.5616 2.5216-6.1035-.0295-1.5221-.3981-2.9261-1.1207-4.1675Zm-6.0606 6.6798c-.6194.6059-1.5484.9163-2.8018.9163-2.4773 0-2.4773-2.3793-4.9694-2.3793-2.5069 0-2.5069 2.3941-5.0284 2.3941-1.2682 0-2.1972-.3104-2.8018-.9163-.5898-.6059-.8848-1.4187-.8848-2.4532 0-.9901.295-1.7734.8848-2.3941.5898-.6059 1.5188-.9162 2.8018-.9162 2.5215 0 2.5215 2.3793 5.0284 2.3793 2.4921 0 2.4921-2.3793 4.9694-2.3793 1.2387 0 2.1824.3103 2.8018.931.6341.6207.9437 1.4039.9437 2.3793 0 1.0049-.3244 1.8325-.9437 2.4384Z" fill="#0077b5"/>
</svg>