<?xml version="1.0" standalone="no"?>
<!DOCTYPE svg PUBLIC "-//W3C//DTD SVG 20010904//EN"
 "http://www.w3.org/TR/2001/REC-SVG-20010904/DTD/svg10.dtd">
<svg version="1.0" xmlns="http://www.w3.org/2000/svg"
 width="512.000000pt" height="512.000000pt" viewBox="0 0 512.000000 512.000000"
 preserveAspectRatio="xMidYMid meet">
<metadata>
Created by potrace 1.14, written by Peter Selinger 2001-2017
</metadata>
<g transform="translate(0.000000,512.000000) scale(0.100000,-0.100000)"
fill="#000000" stroke="none">
<path d="M1317 4654 c-1 -1 -31 -4 -67 -8 -164 -16 -299 -54 -460 -129 -74
-34 -207 -117 -265 -164 -48 -40 -181 -170 -206 -204 -13 -17 -34 -44 -47 -59
-38 -48 -130 -210 -161 -285 -133 -319 -142 -669 -26 -990 164 -452 541 -920
1164 -1445 30 -25 63 -51 75 -59 12 -8 23 -17 26 -21 22 -26 355 -275 508
-381 155 -107 421 -279 432 -279 6 0 10 -4 10 -9 0 -5 8 -11 18 -14 9 -3 64
-35 122 -71 58 -36 110 -66 117 -66 31 0 465 268 718 444 820 570 1378 1127
1655 1656 78 148 154 362 167 470 2 19 8 51 12 70 13 58 4 318 -13 400 -9 41
-19 86 -22 100 -3 14 -17 59 -31 100 -151 441 -523 785 -972 900 -44 11 -93
22 -108 24 -104 15 -138 18 -216 20 -312 8 -637 -102 -892 -303 -70 -56 -185
-174 -242 -249 l-55 -73 -26 38 c-13 21 -48 65 -76 98 -260 305 -625 479
-1029 488 -59 2 -109 2 -110 1z"/>
</g>
</svg>
